<?xml version="1.0" encoding="UTF-8" standalone="no"?>
<svg
   xmlns:dc="http://purl.org/dc/elements/1.1/"
   xmlns:cc="http://creativecommons.org/ns#"
   xmlns:rdf="http://www.w3.org/1999/02/22-rdf-syntax-ns#"
   xmlns:svg="http://www.w3.org/2000/svg"
   xmlns="http://www.w3.org/2000/svg"
   xmlns:xlink="http://www.w3.org/1999/xlink"
   xmlns:sodipodi="http://sodipodi.sourceforge.net/DTD/sodipodi-0.dtd"
   xmlns:inkscape="http://www.inkscape.org/namespaces/inkscape"
   width="24"
   viewBox="0 0 6.7733335 6.7733335"
   height="24"
   id="svg2"
   version="1.1"
   inkscape:version="0.48.4 r9939"
   sodipodi:docname="addressbook.svg">
  <metadata
     id="metadata28">
    <rdf:RDF>
      <cc:Work
         rdf:about="">
        <dc:format>image/svg+xml</dc:format>
        <dc:type
           rdf:resource="http://purl.org/dc/dcmitype/StillImage" />
        <dc:title></dc:title>
      </cc:Work>
    </rdf:RDF>
  </metadata>
  <sodipodi:namedview
     pagecolor="#ffffff"
     bordercolor="#666666"
     borderopacity="1"
     objecttolerance="10"
     gridtolerance="10"
     guidetolerance="10"
     inkscape:pageopacity="0"
     inkscape:pageshadow="2"
     inkscape:window-width="1920"
     inkscape:window-height="1056"
     id="namedview26"
     showgrid="false"
     fit-margin-top="0"
     fit-margin-left="0"
     fit-margin-right="0"
     fit-margin-bottom="0"
     inkscape:zoom="11.313709"
     inkscape:cx="-12.126086"
     inkscape:cy="6.7676063"
     inkscape:window-x="1920"
     inkscape:window-y="24"
     inkscape:window-maximized="1"
     inkscape:current-layer="svg2" />
  <defs
     id="defs4">
    <linearGradient
       id="linearGradient4460">
      <stop
         offset="0"
         style="stop-color:#cd9a66"
         id="stop7" />
      <stop
         offset="1"
         style="stop-color:#dcb894"
         id="stop9" />
    </linearGradient>
    <linearGradient
       gradientTransform="matrix(1.10521,0,0,1.10528,-134.27367,-295.77049)"
       xlink:href="#linearGradient4460"
       id="linearGradient3017"
       y1="279.09601"
       y2="268.32999"
       gradientUnits="userSpaceOnUse"
       x2="0" />
  </defs>
  <g
     transform="translate(-25.694799,-7.2404121)"
     id="g14" />
  <g
     id="g3787">
    <path
       sodipodi:nodetypes="sccssss"
       id="path4"
       d="m 26.798654,7.3003842 4.394227,3.02e-5 c 0,0 0.0048,6.6631696 0,6.6604136 l -4.394227,-3.7e-5 c -0.671702,-5e-6 -0.671702,0 -0.671702,-0.740046 l 0,-5.1803156 c 0,-0.7400452 0,-0.7400498 0.671702,-0.7400452 z"
       style="fill:#e9b080;fill-rule:evenodd"
       inkscape:connector-curvature="0"
       transform="translate(-25.694799,-7.2404121)" />
    <path
       sodipodi:nodetypes="ccccc"
       inkscape:connector-curvature="0"
       id="path18"
       d="m 31.18733,7.4416572 0,6.3446518 c -0.0015,-5.8e-5 0.875615,0 0.875615,0 l 0,-6.3446518 z"
       style="fill:#74c0fe;fill-rule:evenodd"
       transform="translate(-25.694799,-7.2404121)" />
    <path
       sodipodi:nodetypes="ccccc"
       inkscape:connector-curvature="0"
       id="path20"
       d="m 31.187364,8.1767544 -3.4e-5,1.4276058 0.875264,0 c 0,0 0.0011,-1.4196427 0,-1.4276058 z"
       style="fill:#5ebb49;fill-rule:evenodd"
       transform="translate(-25.694799,-7.2404121)" />
    <path
       sodipodi:nodetypes="ccccc"
       inkscape:connector-curvature="0"
       id="path22"
       d="m 31.18733,11.271208 0,1.586216 0.874403,0 c 0,0 0.0026,-1.590653 0,-1.586216 z"
       style="fill:#259cfd;fill-rule:evenodd"
       transform="translate(-25.694799,-7.2404121)" />
    <path
       inkscape:connector-curvature="0"
       id="path24"
       d="m 3.1730653,1.6595452 0.3898358,0 c 0.5847517,0 0.5847517,0.6682068 0.5847517,0.6682068 l 0,0.6612381 c 0,0.2227424 -0.3898341,0.6751684 -0.3898341,0.6751684 l 0,0.2227356 0.7796687,0.4385093 0,0.445458 -1.2669633,0.0074 -1.0720474,0 0,-0.445465 0.7796716,-0.4454711 0,-0.2227286 c 0,0 -0.3911195,-0.452433 -0.3898352,-0.6751616 l 0,-0.6612518 c 0,0 -3.4e-6,-0.6681999 0.5847522,-0.6681999 z"
       style="line-height:normal;color:#000000;fill:#2e2e2e;fill-opacity:0.4" />
  </g>
</svg>
