<?xml version="1.0" encoding="UTF-8" standalone="no"?>
<!-- This Source Code Form is subject to the terms of the Mozilla Public
   - License, v. 2.0. If a copy of the MPL was not distributed with this
   - file, You can obtain one at http://mozilla.org/MPL/2.0/. -->

<svg
   xmlns:dc="http://purl.org/dc/elements/1.1/"
   xmlns:cc="http://creativecommons.org/ns#"
   xmlns:rdf="http://www.w3.org/1999/02/22-rdf-syntax-ns#"
   xmlns:svg="http://www.w3.org/2000/svg"
   xmlns="http://www.w3.org/2000/svg"
   xmlns:sodipodi="http://sodipodi.sourceforge.net/DTD/sodipodi-0.dtd"
   xmlns:inkscape="http://www.inkscape.org/namespaces/inkscape"
   width="16"
   height="15.884788"
   id="svg2"
   version="1.1"
   inkscape:version="0.48.4 r9939"
   sodipodi:docname="attachment-col.svg">
  <metadata
     id="metadata10">
    <rdf:RDF>
      <cc:Work
         rdf:about="">
        <dc:format>image/svg+xml</dc:format>
        <dc:type
           rdf:resource="http://purl.org/dc/dcmitype/StillImage" />
        <dc:title></dc:title>
      </cc:Work>
    </rdf:RDF>
  </metadata>
  <defs
     id="defs8" />
  <sodipodi:namedview
     pagecolor="#ffffff"
     bordercolor="#666666"
     borderopacity="1"
     objecttolerance="10"
     gridtolerance="10"
     guidetolerance="10"
     inkscape:pageopacity="0"
     inkscape:pageshadow="2"
     inkscape:window-width="1616"
     inkscape:window-height="906"
     id="namedview6"
     showgrid="false"
     inkscape:zoom="19.666667"
     inkscape:cx="-2.7392206"
     inkscape:cy="9.9057972"
     inkscape:window-x="1963"
     inkscape:window-y="44"
     inkscape:window-maximized="0"
     inkscape:current-layer="svg2"
     fit-margin-top="0"
     fit-margin-left="0"
     fit-margin-right="0"
     fit-margin-bottom="0" />
  <path
     style="fill:#2aa198;fill-opacity:1"
     inkscape:connector-curvature="0"
     d="M 11.414257,5.2950574 10.529511,4.06287 4.3635294,8.4846969 C 3.3417096,9.2176293 3.1076113,10.639584 3.8407163,11.660361 c 0.732933,1.021819 2.1548874,1.255917 3.1767072,0.522985 L 14.416636,6.8769449 C 16.119905,5.656143 16.510123,3.2858709 15.288104,1.5834762 14.067304,-0.11978969 11.695989,-0.51018219 9.9935947,0.71183451 L 2.2250195,6.2831712 c -0.00607,0.00438 -0.012021,0.00762 -0.016898,0.011146 -2.37533543,1.7037858 -2.91944612,5.0088138 -1.2154896,7.3831058 1.7029148,2.37412 5.0089854,2.918402 7.3841485,1.215662 0.00486,-0.0033 0.00996,-0.0086 0.015974,-0.01258 l 8.712e-4,0.0012 L 13.696957,11.078807 12.81221,9.8466193 7.5090543,13.648639 c -0.00592,0.003 -0.010968,0.0083 -0.015791,0.01149 -1.6912782,1.212939 -4.0532041,0.824092 -5.266334,-0.867199 -1.213302,-1.690243 -0.8244551,-4.05217 0.8668328,-5.2653001 0.00607,-0.00438 0.010873,-0.00782 0.016897,-0.011146 l -8.856e-4,-0.0012 7.7696175,-5.5711652 c 1.019561,-0.7322368 2.444646,-0.4976236 3.176708,0.5229812 0.731019,1.0204334 0.496577,2.4444741 -0.522813,3.1756639 L 6.1340644,10.949243 C 5.793863,11.193264 5.3191822,11.115116 5.0751619,10.774915 4.8309696,10.435757 4.9092887,9.9600331 5.2493184,9.7170559 L 11.415472,5.2941858 z"
     id="path6" />
</svg>
