<?xml version="1.0" encoding="UTF-8" standalone="no"?>
<!-- This Source Code Form is subject to the terms of the Mozilla Public
   - License, v. 2.0. If a copy of the MPL was not distributed with this
   - file, You can obtain one at http://mozilla.org/MPL/2.0/. -->

<svg
   xmlns:dc="http://purl.org/dc/elements/1.1/"
   xmlns:cc="http://creativecommons.org/ns#"
   xmlns:rdf="http://www.w3.org/1999/02/22-rdf-syntax-ns#"
   xmlns:svg="http://www.w3.org/2000/svg"
   xmlns="http://www.w3.org/2000/svg"
   xmlns:sodipodi="http://sodipodi.sourceforge.net/DTD/sodipodi-0.dtd"
   xmlns:inkscape="http://www.inkscape.org/namespaces/inkscape"
   width="12"
   height="12"
   id="svg2"
   version="1.1"
   inkscape:version="0.48.4 r9939"
   sodipodi:docname="readcol.svg">
  <metadata
     id="metadata14">
    <rdf:RDF>
      <cc:Work
         rdf:about="">
        <dc:format>image/svg+xml</dc:format>
        <dc:type
           rdf:resource="http://purl.org/dc/dcmitype/StillImage" />
      </cc:Work>
    </rdf:RDF>
  </metadata>
  <defs
     id="defs12" />
  <sodipodi:namedview
     pagecolor="#ffffff"
     bordercolor="#666666"
     borderopacity="1"
     objecttolerance="10"
     gridtolerance="10"
     guidetolerance="10"
     inkscape:pageopacity="0"
     inkscape:pageshadow="2"
     inkscape:window-width="1291"
     inkscape:window-height="850"
     id="namedview10"
     showgrid="false"
     inkscape:zoom="1.2291667"
     inkscape:cx="43.774481"
     inkscape:cy="-2.4121215"
     inkscape:window-x="755"
     inkscape:window-y="200"
     inkscape:window-maximized="0"
     inkscape:current-layer="svg2" />
  <path
     style="fill:#333333"
     inkscape:connector-curvature="0"
     d="m 11.866002,7.5532976 q 0,0.7881706 -0.163542,1.3004094 -0.163542,0.5122391 -0.512239,0.7708801 -0.348697,0.2586409 -0.770879,0.3544606 -0.4221825,0.09582 -1.0749095,0.09582 -0.6527259,0 -1.0749086,-0.09582 Q 7.847341,9.8832277 7.4986447,9.6245871 7.1499477,9.3659461 6.9864059,8.853707 6.8228641,8.3414682 6.8228641,7.5532976 q 0,-0.292502 -0.2082094,-0.5064752 -0.2082096,-0.2139732 -0.5064753,-0.2139732 -0.2982656,0 -0.5122388,0.2139732 -0.2139731,0.2139732 -0.2139731,0.5064752 0,0.7881706 -0.163542,1.3004094 -0.163542,0.5122391 -0.5122391,0.7708801 -0.3486962,0.2586409 -0.7708796,0.3544606 -0.4221825,0.09582 -1.0749089,0.09582 -0.652726,0 -1.074909,-0.09582 Q 1.3633059,9.8832277 1.0146088,9.6245871 0.66591182,9.3659461 0.50236982,8.853707 q -0.163541,-0.5122388 -0.163541,-1.3004094 0,-0.6419196 0.09006,-1.0021438 -0.180113,-0.3155564 -0.01153,-0.618865 L 2.8603999,2.0822123 q 0.123917,-0.2139732 0.354461,-0.2759317 0.2305434,-0.061959 0.4387526,0.061959 0.20821,0.1239171 0.2701689,0.3659878 0.061957,0.2420707 -0.061957,0.4560439 L 2.1053689,5.4481477 q 0.472614,-0.056195 1.114533,-0.056195 0.8443663,0 1.2888833,0.1239171 0.4445161,0.1239172 0.6361558,0.4164192 0.5741972,0.1801121 0.9567553,0.1801121 0.3825581,0 0.9567553,-0.1801121 0.1916393,-0.292502 0.6361553,-0.4164192 0.4445166,-0.1239171 1.2888822,-0.1239171 0.6419193,0 1.1145339,0.056195 L 8.3415687,2.6902708 Q 8.2176516,2.4762976 8.2796097,2.2342269 8.3415687,1.9921562 8.5497778,1.8682391 8.7579874,1.744322 8.9885309,1.8062801 9.2190747,1.8682391 9.3429915,2.0822118 l 2.4430405,3.8500765 q 0.168585,0.3040292 -0.01153,0.6188651 0.09006,0.3602242 0.09006,1.0021437 z M 3.1190389,6.1124009 q -0.67578,0 -1.080673,0.073485 -0.404892,0.073486 -0.624628,0.2701685 -0.219737,0.1966824 -0.286739,0.4502802 -0.067,0.2535979 -0.06772,0.7038781 0,0.5518635 0.118153,0.9005607 0.118154,0.348697 0.365988,0.5345729 0.247834,0.1858756 0.551863,0.2478342 0.304029,0.061959 0.765837,0.061959 0.461807,0 0.7658368,-0.061959 Q 3.9309858,9.2312215 4.183863,9.0453463 4.4367403,8.8594704 4.5498509,8.5107734 4.6629615,8.1620762 4.662241,7.6102127 v -0.315556 q 0,0 -0.011528,-0.2644045 Q 4.639184,6.7658476 4.622614,6.7939451 4.606044,6.8220431 4.566417,6.6080693 4.52679,6.3940962 4.470597,6.4445276 4.4144,6.4949586 4.33011,6.3206105 4.245814,6.1462619 4.1334274,6.2247905 4.0210372,6.3033195 3.8747868,6.1685955 3.7285356,6.0338716 3.54266,6.123207 3.3567841,6.2125423 3.1204771,6.1116796 z m 5.9667531,0 q -0.2363072,0 -0.4164193,0.011527 -0.1801121,0.011528 -0.3321267,0.045389 -0.1520146,0.033861 -0.2644046,0.056195 -0.11239,0.022334 -0.1966824,0.09582 -0.084292,0.073486 -0.1404875,0.1239171 -0.056195,0.050431 -0.09582,0.168585 -0.039624,0.1181535 -0.056195,0.1858756 -0.01657,0.067722 -0.028098,0.2305436 -0.011527,0.1628213 -0.011527,0.2644045 v 0.3155564 q 0,0.5518635 0.1181535,0.9005606 0.1181536,0.348697 0.3659878,0.5345729 0.2478343,0.1858757 0.5518635,0.2478342 0.3040292,0.061959 0.7658365,0.061959 0.4618077,0 0.7658362,-0.061959 0.304029,-0.061959 0.556906,-0.2478342 0.252878,-0.1858759 0.365988,-0.5345729 0.113111,-0.3486971 0.112391,-0.9005606 0,-0.4502803 -0.06773,-0.7038781 Q 11.011551,6.6527371 10.792534,6.4560546 10.573517,6.2593722 10.167905,6.1858865 9.7622934,6.1124009 9.0872328,6.1124009 z M 8.9842086,7.5532976 q -0.3378902,0 -0.5288091,-0.1015832 Q 8.2644807,7.3501311 8.2637602,7.1930734 8.2630398,7.0360156 8.4553995,6.9344324 8.6477592,6.8328492 8.9842086,6.8328492 q 1.0806724,0 1.0806724,0.3602242 0,0.3602242 -1.0806724,0.3602242 z m -6.4840347,0 q -0.33789,0 -0.52881,-0.1015832 -0.190918,-0.1015833 -0.191638,-0.258641 -7.21e-4,-0.1570578 0.191638,-0.258641 0.192361,-0.1015832 0.52881,-0.1015832 1.0806725,0 1.0806725,0.3602242 0,0.3602242 -1.0806725,0.3602242 z"
     id="path6" />
</svg>
