<?xml version="1.0" encoding="utf-8"?>
<!-- Generated by IcoMoon.io -->
<!DOCTYPE svg PUBLIC "-//W3C//DTD SVG 1.1//EN" "http://www.w3.org/Graphics/SVG/1.1/DTD/svg11.dtd">
<svg version="1.1" xmlns="http://www.w3.org/2000/svg" xmlns:xlink="http://www.w3.org/1999/xlink" width="16" height="16" viewBox="0 0 16 16">
<g>
</g>
	<path d="M14.497 0h-4.509c-0.827 0-1.981 0.478-2.566 1.063l-6.984 6.984c-0.585 0.585-0.585 1.541 0 2.126l5.389 5.389c0.585 0.585 1.541 0.585 2.125 0l6.984-6.984c0.585-0.585 1.063-1.739 1.063-2.566v-4.509c0-0.827-0.676-1.503-1.503-1.503zM12.5 5c-0.828 0-1.5-0.672-1.5-1.5s0.672-1.5 1.5-1.5 1.5 0.672 1.5 1.5-0.672 1.5-1.5 1.5z" fill="#268bd2" />
</svg>
