<?xml version="1.0" encoding="UTF-8" standalone="no"?>
<!-- Generated by IcoMoon.io -->

<svg
   xmlns:dc="http://purl.org/dc/elements/1.1/"
   xmlns:cc="http://creativecommons.org/ns#"
   xmlns:rdf="http://www.w3.org/1999/02/22-rdf-syntax-ns#"
   xmlns:svg="http://www.w3.org/2000/svg"
   xmlns="http://www.w3.org/2000/svg"
   xmlns:sodipodi="http://sodipodi.sourceforge.net/DTD/sodipodi-0.dtd"
   xmlns:inkscape="http://www.inkscape.org/namespaces/inkscape"
   version="1.1"
   width="16"
   height="16"
   viewBox="0 0 16 16"
   id="svg2"
   inkscape:version="0.48.4 r9939"
   sodipodi:docname="tag.svg">
  <metadata
     id="metadata12">
    <rdf:RDF>
      <cc:Work
         rdf:about="">
        <dc:format>image/svg+xml</dc:format>
        <dc:type
           rdf:resource="http://purl.org/dc/dcmitype/StillImage" />
      </cc:Work>
    </rdf:RDF>
  </metadata>
  <defs
     id="defs10" />
  <sodipodi:namedview
     pagecolor="#ffffff"
     bordercolor="#666666"
     borderopacity="1"
     objecttolerance="10"
     gridtolerance="10"
     guidetolerance="10"
     inkscape:pageopacity="0"
     inkscape:pageshadow="2"
     inkscape:window-width="1920"
     inkscape:window-height="1056"
     id="namedview8"
     showgrid="false"
     inkscape:zoom="29.5"
     inkscape:cx="15.939372"
     inkscape:cy="6.9767212"
     inkscape:window-x="1920"
     inkscape:window-y="24"
     inkscape:window-maximized="1"
     inkscape:current-layer="svg2" />
  <g
     id="g4" />
  <path
     d="m 0.03155185,11.696019 c 0.07330999,0.317009 0.24620084,0.560858 0.51867056,0.731551 l 5.42859379,3.397128 c 0.2843799,0.167234 0.5823933,0.214815 0.8940399,0.142746 0.2151368,-0.04975 0.3820507,-0.132481 0.5007395,-0.248184 0.1186878,-0.115705 0.2460403,-0.287073 0.3820542,-0.514101 L 2.5618541,11.962369 C 2.2895384,11.792347 2.1166486,11.548496 2.0431834,11.230819 1.9712684,10.919843 2.0188494,10.62183 2.1859271,10.336779 L 7.1217562,2.4437316 C 7.2964161,2.1639894 7.557059,1.9003717 7.9036852,1.6528785 8.2503127,1.4053852 8.5821305,1.2449835 8.8991391,1.1716733 L 6.8885132,1.6366417 C 6.5715043,1.7099517 6.2396865,1.8703528 5.8930603,2.1178466 5.546434,2.3653399 5.2857907,2.6289576 5.1111317,2.9086998 L 0.17530141,10.801748 c -0.16723279,0.284378 -0.21481369,0.582393 -0.14274368,0.894039 z"
     id="path6-5"
     inkscape:connector-curvature="0"
     style="fill:#dc322f;fill-opacity:1"
     sodipodi:nodetypes="cccsscssccscsscccc" />
  <path
     d="m 11.456584,3.6070892 c -0.07331,-0.3170088 -0.02366,-0.613734 0.148932,-0.8901746 0.1726,-0.2764415 0.417402,-0.451317 0.734411,-0.524627 0.317007,-0.07331 0.613734,-0.023665 0.890172,0.1489327 0.276443,0.1725981 0.45132,0.4174016 0.52463,0.7344102 0.07331,0.3170091 0.02366,0.6137342 -0.148933,0.8901752 -0.172597,0.276441 -0.417401,0.4513167 -0.734409,0.5246269 C 12.554376,4.5637422 12.257652,4.5140976 11.98121,4.3415 11.70477,4.1689017 11.529894,3.9240978 11.456584,3.6070892 z M 3.0746347,10.992288 c 0.07331,0.317009 0.2461987,0.560862 0.5186706,0.731554 l 5.4285923,3.397127 c 0.2843796,0.167232 0.5823928,0.214815 0.8940392,0.142744 0.3170102,-0.07331 0.5608622,-0.246199 0.7315542,-0.51867 l 4.931643,-7.9111429 c 0.176055,-0.2737109 0.299174,-0.6206114 0.369361,-1.0407036 0.07019,-0.4200913 0.06862,-0.7886414 -0.0046,-1.1056504 L 15.080392,0.95381429 C 15.008446,0.64283764 14.832541,0.39968465 14.552643,0.22435524 14.272746,0.04902561 13.977053,-0.00226903 13.665561,0.07047138 L 9.9318271,0.93391723 C 9.6148191,1.0072273 9.2830017,1.167628 8.9363754,1.4151223 8.5897476,1.6626159 8.3291049,1.9262333 8.154446,2.2059753 L 3.2186149,10.099024 c -0.1672321,0.284378 -0.214813,0.582391 -0.1427428,0.89404 z"
     id="path6-4"
     inkscape:connector-curvature="0"
     style="fill:#268bd2"
     sodipodi:nodetypes="ssssssssscccsccsssscsscccc" />
</svg>
