<?xml version="1.0" encoding="UTF-8" standalone="no"?>
<!-- Generated by IcoMoon.io -->

<svg
   xmlns:dc="http://purl.org/dc/elements/1.1/"
   xmlns:cc="http://creativecommons.org/ns#"
   xmlns:rdf="http://www.w3.org/1999/02/22-rdf-syntax-ns#"
   xmlns:svg="http://www.w3.org/2000/svg"
   xmlns="http://www.w3.org/2000/svg"
   xmlns:sodipodi="http://sodipodi.sourceforge.net/DTD/sodipodi-0.dtd"
   xmlns:inkscape="http://www.inkscape.org/namespaces/inkscape"
   version="1.1"
   width="17"
   height="16"
   viewBox="0 0 17 16"
   id="svg2"
   inkscape:version="0.48.4 r9939"
   sodipodi:docname="tags.svg">
  <metadata
     id="metadata12">
    <rdf:RDF>
      <cc:Work
         rdf:about="">
        <dc:format>image/svg+xml</dc:format>
        <dc:type
           rdf:resource="http://purl.org/dc/dcmitype/StillImage" />
      </cc:Work>
    </rdf:RDF>
  </metadata>
  <defs
     id="defs10" />
  <sodipodi:namedview
     pagecolor="#ffffff"
     bordercolor="#666666"
     borderopacity="1"
     objecttolerance="10"
     gridtolerance="10"
     guidetolerance="10"
     inkscape:pageopacity="0"
     inkscape:pageshadow="2"
     inkscape:window-width="1920"
     inkscape:window-height="1056"
     id="namedview8"
     showgrid="false"
     inkscape:zoom="14.75"
     inkscape:cx="-3.0932203"
     inkscape:cy="8"
     inkscape:window-x="1920"
     inkscape:window-y="24"
     inkscape:window-maximized="1"
     inkscape:current-layer="svg2" />
  <g
     id="g4" />
  <path
     style="fill:#268bd2"
     d="M 15.5,1 12,1 C 11.175,1 10.023,1.477 9.439,2.061 L 3.56,7.94 c -0.583,0.583 -0.583,1.538 0,2.121 l 4.379,4.379 c 0.583,0.583 1.538,0.583 2.121,0 L 15.939,8.561 C 16.522,7.978 17,6.825 17,6 L 17,2.5 C 17,1.675 16.325,1 15.5,1 z"
     id="path2993" />
  <path
     style="fill:#268bd2"
     d="M 13.5,6 C 12.672,6 12,5.328 12,4.5 12,3.672 12.672,3 13.5,3 14.328,3 15,3.672 15,4.5 15,5.328 14.328,6 13.5,6 z"
     id="path2991" />
  <path
     style="fill:#dc322f;fill-opacity:1"
     d="m 1.354,9.354 5.35,5.35 C 6.137,15.003 5.416,14.916 4.94,14.44 L 3.5889831,13.088983 0.561,10.061 C -0.022,9.478 -0.022,8.523 0.561,7.94 L 6.44,2.061 C 7.023,1.478 8.176,1 9.001,1 L 1.355,8.646 c -0.194,0.194 -0.194,0.513 0,0.707 z"
     id="path6" />
</svg>
