<?xml version="1.0" encoding="UTF-8" standalone="no"?>
<svg
   xmlns:dc="http://purl.org/dc/elements/1.1/"
   xmlns:cc="http://creativecommons.org/ns#"
   xmlns:rdf="http://www.w3.org/1999/02/22-rdf-syntax-ns#"
   xmlns:svg="http://www.w3.org/2000/svg"
   xmlns="http://www.w3.org/2000/svg"
   xmlns:xlink="http://www.w3.org/1999/xlink"
   xmlns:sodipodi="http://sodipodi.sourceforge.net/DTD/sodipodi-0.dtd"
   xmlns:inkscape="http://www.inkscape.org/namespaces/inkscape"
   width="24"
   viewBox="0 0 6.7733335 6.7733335"
   height="24"
   id="svg2"
   version="1.1"
   inkscape:version="0.48.4 r9939"
   sodipodi:docname="accessories-text-editor.svg">
  <metadata
     id="metadata40">
    <rdf:RDF>
      <cc:Work
         rdf:about="">
        <dc:format>image/svg+xml</dc:format>
        <dc:type
           rdf:resource="http://purl.org/dc/dcmitype/StillImage" />
        <dc:title></dc:title>
      </cc:Work>
    </rdf:RDF>
  </metadata>
  <sodipodi:namedview
     pagecolor="#ffffff"
     bordercolor="#666666"
     borderopacity="1"
     objecttolerance="10"
     gridtolerance="10"
     guidetolerance="10"
     inkscape:pageopacity="0"
     inkscape:pageshadow="2"
     inkscape:window-width="1861"
     inkscape:window-height="1056"
     id="namedview38"
     showgrid="false"
     inkscape:zoom="13.906433"
     inkscape:cx="1.1775515"
     inkscape:cy="22.326888"
     inkscape:window-x="59"
     inkscape:window-y="24"
     inkscape:window-maximized="1"
     inkscape:current-layer="svg2" />
  <defs
     id="defs4">
    <linearGradient
       id="linearGradient4460">
      <stop
         offset="0"
         style="stop-color:#aaa"
         id="stop7" />
      <stop
         offset="1"
         style="stop-color:#c8c8c8"
         id="stop9" />
    </linearGradient>
    <linearGradient
       gradientTransform="matrix(1.10528,0,0,1.10528,-134.28288,-295.77052)"
       xlink:href="#linearGradient4460"
       id="linearGradient3005"
       y1="279.09601"
       y2="268.32999"
       gradientUnits="userSpaceOnUse"
       x2="0" />
  </defs>
  <path
     style="line-height:normal;color:#000000;fill:#f9f9f9"
     d="m 0.84666656,2.0012e-4 c 0,0 -0.2822221,2.36e-5 -0.2822221,0.2822139 l 0,6.20870588 c 0,0 -1e-7,0.2822136 0.2822221,0.2822136 l 5.08000024,0 c 0,0 0.2822219,2e-6 0.2822219,-0.2821893 l 0,-4.2328475 L 3.951111,7.7782e-4 c -1.0484988,-0.0013 -2.4676068,-5.777e-4 -3.10444444,-5.777e-4 z"
     id="path18"
     inkscape:connector-curvature="0" />
  <g
     style="fill:#aaaaaa"
     transform="translate(-3.386667,-3.5277765)"
     id="g20">
    <path
       d="m 5.3622223,6.0677779 0,0.2822223 2.8222224,0 0,-0.2822223 z"
       id="path22"
       inkscape:connector-curvature="0" />
    <path
       d="m 5.3622223,6.6322224 0,0.2822222 2.8222224,0 0,-0.2822222 z"
       id="path24"
       inkscape:connector-curvature="0" />
    <path
       d="m 5.3622223,7.1966669 0,0.2822222 2.8222224,0 0,-0.2822222 z"
       id="path26"
       inkscape:connector-curvature="0" />
  </g>
  <path
     style="line-height:normal;color:#000000;fill:#dedede"
     d="M 6.2088885,2.2577781 3.9511109,2.2e-7 c -0.00123,1.12853838 10e-8,1.69333338 10e-8,1.97555568 0,0.2822222 0,0.2822222 0.2822222,0.2822222 0.2822222,0 1.1566756,0.00337 1.9755553,0 z"
     id="path28"
     inkscape:connector-curvature="0" />
  <rect
     width="3.8870001"
     x="2.2483332"
     y="4.5153332"
     height="1.1289999"
     style="fill:#ff6f05"
     id="rect30" />
  <path
     style="fill:#ff2d5e"
     d="m 5.926593,4.5154435 0,1.12888 0.687911,0 c 0,0 0.158979,-0.091715 0.158749,-0.56444 7e-6,-0.4553874 -0.1763875,-0.56444 -0.1763875,-0.56444 l -0.6702725,0 z"
     id="path32"
     inkscape:connector-curvature="0" />
  <path
     style="fill:#ffc13e"
     d="m 2.257733,4.5155559 -1.12888,0.5644444 1.12888,0.5644445 0,-1.1288889 z"
     id="path34"
     inkscape:connector-curvature="0" />
  <path
     style="fill:#2d2d2d"
     d="m 1.693293,4.7929947 -0.56444,0.2870056 0.56444,0.2870058 0,-0.5740114 z"
     id="path36"
     inkscape:connector-curvature="0" />
</svg>
